<?xml version="1.0" standalone="no"?>
<svg xmlns="http://www.w3.org/2000/svg" width="500" height="500"><defs><clipPath id="clip-path-dot-color"><path d="M 19 159v 14h 14v -7a 7 7, 0, 0, 0, -7 -7" transform="rotate(-90,26,166)"/><path d="M 19 173v 14h 7a 7 7, 0, 0, 0, 0 -14" transform="rotate(90,26,180)"/><path d="M 19 229v 14h 14v -7a 7 7, 0, 0, 0, -7 -7" transform="rotate(-90,26,236)"/><rect x="19" y="243" width="14" height="14" transform="rotate(0,26,250)"/><path d="M 19 257v 14h 14v -7a 7 7, 0, 0, 0, -7 -7" transform="rotate(180,26,264)"/><path d="M 19 285v 14h 7a 7 7, 0, 0, 0, 0 -14" transform="rotate(-90,26,292)"/><rect x="19" y="299" width="14" height="14" transform="rotate(0,26,306)"/><path d="M 19 313v 14h 7a 7 7, 0, 0, 0, 0 -14" transform="rotate(90,26,320)"/><path d="M 19 341v 14h 7a 7 7, 0, 0, 0, 0 -14" transform="rotate(180,26,348)"/><path d="M 33 131v 14h 14v -7a 7 7, 0, 0, 0, -7 -7" transform="rotate(-90,40,138)"/><rect x="33" y="145" width="14" height="14" transform="rotate(0,40,152)"/><path d="M 33 159v 14h 14v -7a 7 7, 0, 0, 0, -7 -7" transform="rotate(90,40,166)"/><rect x="33" y="229" width="14" height="14" transform="rotate(0,40,236)"/><path d="M 33 257v 14h 14v -7a 7 7, 0, 0, 0, -7 -7" transform="rotate(0,40,264)"/><path d="M 33 271v 14h 7a 7 7, 0, 0, 0, 0 -14" transform="rotate(90,40,278)"/><path d="M 33 327v 14h 14v -7a 7 7, 0, 0, 0, -7 -7" transform="rotate(-90,40,334)"/><rect x="33" y="341" width="14" height="14" transform="rotate(0,40,348)"/><path d="M 33 355v 14h 7a 7 7, 0, 0, 0, 0 -14" transform="rotate(90,40,362)"/><path d="M 47 131v 14h 7a 7 7, 0, 0, 0, 0 -14" transform="rotate(0,54,138)"/><path d="M 47 173v 14h 7a 7 7, 0, 0, 0, 0 -14" transform="rotate(-90,54,180)"/><rect x="47" y="187" width="14" height="14" transform="rotate(0,54,194)"/><rect x="47" y="201" width="14" height="14" transform="rotate(0,54,208)"/><rect x="47" y="215" width="14" height="14" transform="rotate(0,54,222)"/><path d="M 47 229v 14h 14v -7a 7 7, 0, 0, 0, -7 -7" transform="rotate(90,54,236)"/><path d="M 47 285v 14h 7a 7 7, 0, 0, 0, 0 -14" transform="rotate(180,54,292)"/><rect x="47" y="327" width="14" height="14" transform="rotate(0,54,334)"/><path d="M 61 145v 14h 7a 7 7, 0, 0, 0, 0 -14" transform="rotate(180,68,152)"/><rect x="61" y="187" width="14" height="14" transform="rotate(0,68,194)"/><path d="M 61 215v 14h 7a 7 7, 0, 0, 0, 0 -14" transform="rotate(0,68,222)"/><path d="M 61 243v 14h 7a 7 7, 0, 0, 0, 0 -14" transform="rotate(-90,68,250)"/><path d="M 61 257v 14h 14v -7a 7 7, 0, 0, 0, -7 -7" transform="rotate(180,68,264)"/><rect x="61" y="285" width="14" height="14" transform="rotate(0,68,292)"/><rect x="61" y="327" width="14" height="14" transform="rotate(0,68,334)"/><path d="M 61 355v 14h 7a 7 7, 0, 0, 0, 0 -14" transform="rotate(180,68,362)"/><path d="M 75 145v 14h 14v -7a 7 7, 0, 0, 0, -7 -7" transform="rotate(0,82,152)"/><path d="M 75 159v 14h 7a 7 7, 0, 0, 0, 0 -14" transform="rotate(90,82,166)"/><rect x="75" y="187" width="14" height="14" transform="rotate(0,82,194)"/><path d="M 75 201v 14h 7a 7 7, 0, 0, 0, 0 -14" transform="rotate(90,82,208)"/><path d="M 75 257v 14h 7a 7 7, 0, 0, 0, 0 -14" transform="rotate(0,82,264)"/><rect x="75" y="285" width="14" height="14" transform="rotate(0,82,292)"/><path d="M 75 313v 14h 14v -7a 7 7, 0, 0, 0, -7 -7" transform="rotate(-90,82,320)"/><path d="M 75 327v 14h 14v -7a 7 7, 0, 0, 0, -7 -7" transform="rotate(90,82,334)"/><path d="M 75 355v 14h 7a 7 7, 0, 0, 0, 0 -14" transform="rotate(0,82,362)"/><path d="M 89 173v 14h 7a 7 7, 0, 0, 0, 0 -14" transform="rotate(-90,96,180)"/><rect x="89" y="187" width="14" height="14" transform="rotate(0,96,194)"/><path d="M 89 215v 14h 14v -7a 7 7, 0, 0, 0, -7 -7" transform="rotate(-90,96,222)"/><rect x="89" y="229" width="14" height="14" transform="rotate(0,96,236)"/><path d="M 89 243v 14h 14v -7a 7 7, 0, 0, 0, -7 -7" transform="rotate(180,96,250)"/><path d="M 89 271v 14h 14v -7a 7 7, 0, 0, 0, -7 -7" transform="rotate(-90,96,278)"/><path d="M 89 285v 14h 14v -7a 7 7, 0, 0, 0, -7 -7" transform="rotate(90,96,292)"/><path d="M 89 313v 14h 7a 7 7, 0, 0, 0, 0 -14" transform="rotate(0,96,320)"/><circle cx="110" cy="138" r="7" transform="rotate(0,110,138)"/><circle cx="110" cy="166" r="7" transform="rotate(0,110,166)"/><path d="M 103 187v 14h 7a 7 7, 0, 0, 0, 0 -14" transform="rotate(0,110,194)"/><path d="M 103 215v 14h 7a 7 7, 0, 0, 0, 0 -14" transform="rotate(0,110,222)"/><rect x="103" y="243" width="14" height="14" transform="rotate(0,110,250)"/><path d="M 103 271v 14h 7a 7 7, 0, 0, 0, 0 -14" transform="rotate(0,110,278)"/><circle cx="110" cy="306" r="7" transform="rotate(0,110,306)"/><circle cx="110" cy="334" r="7" transform="rotate(0,110,334)"/><circle cx="110" cy="362" r="7" transform="rotate(0,110,362)"/><circle cx="124" cy="152" r="7" transform="rotate(0,124,152)"/><path d="M 117 173v 14h 7a 7 7, 0, 0, 0, 0 -14" transform="rotate(180,124,180)"/><path d="M 117 201v 14h 7a 7 7, 0, 0, 0, 0 -14" transform="rotate(180,124,208)"/><rect x="117" y="243" width="14" height="14" transform="rotate(0,124,250)"/><path d="M 117 257v 14h 14v -7a 7 7, 0, 0, 0, -7 -7" transform="rotate(180,124,264)"/><path d="M 131 33v 14h 7a 7 7, 0, 0, 0, 0 -14" transform="rotate(-90,138,40)"/><rect x="131" y="47" width="14" height="14" transform="rotate(0,138,54)"/><path d="M 131 61v 14h 14v -7a 7 7, 0, 0, 0, -7 -7" transform="rotate(180,138,68)"/><path d="M 131 89v 14h 14v -7a 7 7, 0, 0, 0, -7 -7" transform="rotate(-90,138,96)"/><path d="M 131 103v 14h 7a 7 7, 0, 0, 0, 0 -14" transform="rotate(90,138,110)"/><path d="M 131 159v 14h 7a 7 7, 0, 0, 0, 0 -14" transform="rotate(-90,138,166)"/><path d="M 131 173v 14h 14v -7a 7 7, 0, 0, 0, -7 -7" transform="rotate(90,138,180)"/><path d="M 131 201v 14h 7a 7 7, 0, 0, 0, 0 -14" transform="rotate(0,138,208)"/><path d="M 131 243v 14h 14v -7a 7 7, 0, 0, 0, -7 -7" transform="rotate(0,138,250)"/><rect x="131" y="257" width="14" height="14" transform="rotate(0,138,264)"/><path d="M 131 271v 14h 14v -7a 7 7, 0, 0, 0, -7 -7" transform="rotate(180,138,278)"/><path d="M 131 313v 14h 7a 7 7, 0, 0, 0, 0 -14" transform="rotate(180,138,320)"/><path d="M 131 439v 14h 14v -7a 7 7, 0, 0, 0, -7 -7" transform="rotate(-90,138,446)"/><path d="M 131 453v 14h 7a 7 7, 0, 0, 0, 0 -14" transform="rotate(90,138,460)"/><rect x="145" y="47" width="14" height="14" transform="rotate(0,152,54)"/><rect x="145" y="61" width="14" height="14" transform="rotate(0,152,68)"/><path d="M 145 89v 14h 7a 7 7, 0, 0, 0, 0 -14" transform="rotate(0,152,96)"/><path d="M 145 117v 14h 14v -7a 7 7, 0, 0, 0, -7 -7" transform="rotate(-90,152,124)"/><rect x="145" y="131" width="14" height="14" transform="rotate(0,152,138)"/><path d="M 145 145v 14h 14v -7a 7 7, 0, 0, 0, -7 -7" transform="rotate(180,152,152)"/><circle cx="152" cy="222" r="7" transform="rotate(0,152,222)"/><rect x="145" y="271" width="14" height="14" transform="rotate(0,152,278)"/><rect x="145" y="285" width="14" height="14" transform="rotate(0,152,292)"/><rect x="145" y="299" width="14" height="14" transform="rotate(0,152,306)"/><rect x="145" y="313" width="14" height="14" transform="rotate(0,152,320)"/><rect x="145" y="327" width="14" height="14" transform="rotate(0,152,334)"/><path d="M 145 341v 14h 14v -7a 7 7, 0, 0, 0, -7 -7" transform="rotate(180,152,348)"/><path d="M 145 383v 14h 7a 7 7, 0, 0, 0, 0 -14" transform="rotate(-90,152,390)"/><path d="M 145 397v 14h 14v -7a 7 7, 0, 0, 0, -7 -7" transform="rotate(180,152,404)"/><path d="M 145 425v 14h 14v -7a 7 7, 0, 0, 0, -7 -7" transform="rotate(-90,152,432)"/><path d="M 145 439v 14h 14v -7a 7 7, 0, 0, 0, -7 -7" transform="rotate(90,152,446)"/><path d="M 145 467v 14h 7a 7 7, 0, 0, 0, 0 -14" transform="rotate(180,152,474)"/><path d="M 159 19v 14h 14v -7a 7 7, 0, 0, 0, -7 -7" transform="rotate(-90,166,26)"/><rect x="159" y="33" width="14" height="14" transform="rotate(0,166,40)"/><rect x="159" y="47" width="14" height="14" transform="rotate(0,166,54)"/><rect x="159" y="61" width="14" height="14" transform="rotate(0,166,68)"/><path d="M 159 75v 14h 14v -7a 7 7, 0, 0, 0, -7 -7" transform="rotate(180,166,82)"/><path d="M 159 103v 14h 7a 7 7, 0, 0, 0, 0 -14" transform="rotate(-90,166,110)"/><rect x="159" y="117" width="14" height="14" transform="rotate(0,166,124)"/><rect x="159" y="131" width="14" height="14" transform="rotate(0,166,138)"/><rect x="159" y="145" width="14" height="14" transform="rotate(0,166,152)"/><rect x="159" y="159" width="14" height="14" transform="rotate(0,166,166)"/><path d="M 159 173v 14h 7a 7 7, 0, 0, 0, 0 -14" transform="rotate(90,166,180)"/><path d="M 159 243v 14h 14v -7a 7 7, 0, 0, 0, -7 -7" transform="rotate(-90,166,250)"/><rect x="159" y="257" width="14" height="14" transform="rotate(0,166,264)"/><rect x="159" y="271" width="14" height="14" transform="rotate(0,166,278)"/><path d="M 159 313v 14h 7a 7 7, 0, 0, 0, 0 -14" transform="rotate(0,166,320)"/><path d="M 159 341v 14h 14v -7a 7 7, 0, 0, 0, -7 -7" transform="rotate(0,166,348)"/><rect x="159" y="355" width="14" height="14" transform="rotate(0,166,362)"/><path d="M 159 369v 14h 7a 7 7, 0, 0, 0, 0 -14" transform="rotate(90,166,376)"/><rect x="159" y="397" width="14" height="14" transform="rotate(0,166,404)"/><rect x="159" y="411" width="14" height="14" transform="rotate(0,166,418)"/><rect x="159" y="425" width="14" height="14" transform="rotate(0,166,432)"/><rect x="159" y="467" width="14" height="14" transform="rotate(0,166,474)"/><rect x="173" y="19" width="14" height="14" transform="rotate(0,180,26)"/><rect x="173" y="33" width="14" height="14" transform="rotate(0,180,40)"/><rect x="173" y="47" width="14" height="14" transform="rotate(0,180,54)"/><rect x="173" y="61" width="14" height="14" transform="rotate(0,180,68)"/><rect x="173" y="75" width="14" height="14" transform="rotate(0,180,82)"/><path d="M 173 145v 14h 7a 7 7, 0, 0, 0, 0 -14" transform="rotate(0,180,152)"/><path d="M 173 187v 14h 14v -7a 7 7, 0, 0, 0, -7 -7" transform="rotate(-90,180,194)"/><path d="M 173 201v 14h 14v -7a 7 7, 0, 0, 0, -7 -7" transform="rotate(180,180,208)"/><rect x="173" y="243" width="14" height="14" transform="rotate(0,180,250)"/><rect x="173" y="271" width="14" height="14" transform="rotate(0,180,278)"/><circle cx="180" cy="306" r="7" transform="rotate(0,180,306)"/><path d="M 173 383v 14h 7a 7 7, 0, 0, 0, 0 -14" transform="rotate(-90,180,390)"/><rect x="173" y="397" width="14" height="14" transform="rotate(0,180,404)"/><rect x="173" y="425" width="14" height="14" transform="rotate(0,180,432)"/><path d="M 173 453v 14h 7a 7 7, 0, 0, 0, 0 -14" transform="rotate(-90,180,460)"/><path d="M 173 467v 14h 14v -7a 7 7, 0, 0, 0, -7 -7" transform="rotate(90,180,474)"/><path d="M 187 19v 14h 14v -7a 7 7, 0, 0, 0, -7 -7" transform="rotate(0,194,26)"/><rect x="187" y="33" width="14" height="14" transform="rotate(0,194,40)"/><rect x="187" y="61" width="14" height="14" transform="rotate(0,194,68)"/><path d="M 187 75v 14h 14v -7a 7 7, 0, 0, 0, -7 -7" transform="rotate(90,194,82)"/><circle cx="194" cy="110" r="7" transform="rotate(0,194,110)"/><path d="M 187 187v 14h 14v -7a 7 7, 0, 0, 0, -7 -7" transform="rotate(0,194,194)"/><rect x="187" y="201" width="14" height="14" transform="rotate(0,194,208)"/><path d="M 187 215v 14h 7a 7 7, 0, 0, 0, 0 -14" transform="rotate(90,194,222)"/><path d="M 187 243v 14h 7a 7 7, 0, 0, 0, 0 -14" transform="rotate(0,194,250)"/><path d="M 187 271v 14h 7a 7 7, 0, 0, 0, 0 -14" transform="rotate(0,194,278)"/><circle cx="194" cy="348" r="7" transform="rotate(0,194,348)"/><path d="M 187 369v 14h 7a 7 7, 0, 0, 0, 0 -14" transform="rotate(180,194,376)"/><rect x="187" y="397" width="14" height="14" transform="rotate(0,194,404)"/><rect x="187" y="411" width="14" height="14" transform="rotate(0,194,418)"/><path d="M 187 425v 14h 14v -7a 7 7, 0, 0, 0, -7 -7" transform="rotate(90,194,432)"/><path d="M 201 33v 14h 14v -7a 7 7, 0, 0, 0, -7 -7" transform="rotate(0,208,40)"/><rect x="201" y="47" width="14" height="14" transform="rotate(0,208,54)"/><rect x="201" y="61" width="14" height="14" transform="rotate(0,208,68)"/><rect x="201" y="201" width="14" height="14" transform="rotate(0,208,208)"/><path d="M 201 257v 14h 7a 7 7, 0, 0, 0, 0 -14" transform="rotate(180,208,264)"/><path d="M 201 285v 14h 7a 7 7, 0, 0, 0, 0 -14" transform="rotate(180,208,292)"/><path d="M 201 355v 14h 14v -7a 7 7, 0, 0, 0, -7 -7" transform="rotate(-90,208,362)"/><path d="M 201 369v 14h 14v -7a 7 7, 0, 0, 0, -7 -7" transform="rotate(90,208,376)"/><path d="M 201 397v 14h 7a 7 7, 0, 0, 0, 0 -14" transform="rotate(0,208,404)"/><path d="M 201 439v 14h 14v -7a 7 7, 0, 0, 0, -7 -7" transform="rotate(-90,208,446)"/><path d="M 201 453v 14h 7a 7 7, 0, 0, 0, 0 -14" transform="rotate(90,208,460)"/><circle cx="222" cy="26" r="7" transform="rotate(0,222,26)"/><path d="M 215 61v 14h 14v -7a 7 7, 0, 0, 0, -7 -7" transform="rotate(0,222,68)"/><rect x="215" y="75" width="14" height="14" transform="rotate(0,222,82)"/><rect x="215" y="89" width="14" height="14" transform="rotate(0,222,96)"/><rect x="215" y="103" width="14" height="14" transform="rotate(0,222,110)"/><rect x="215" y="117" width="14" height="14" transform="rotate(0,222,124)"/><rect x="215" y="131" width="14" height="14" transform="rotate(0,222,138)"/><rect x="215" y="145" width="14" height="14" transform="rotate(0,222,152)"/><rect x="215" y="159" width="14" height="14" transform="rotate(0,222,166)"/><rect x="215" y="173" width="14" height="14" transform="rotate(0,222,180)"/><rect x="215" y="187" width="14" height="14" transform="rotate(0,222,194)"/><path d="M 215 201v 14h 14v -7a 7 7, 0, 0, 0, -7 -7" transform="rotate(90,222,208)"/><path d="M 215 257v 14h 14v -7a 7 7, 0, 0, 0, -7 -7" transform="rotate(0,222,264)"/><rect x="215" y="271" width="14" height="14" transform="rotate(0,222,278)"/><rect x="215" y="285" width="14" height="14" transform="rotate(0,222,292)"/><rect x="215" y="299" width="14" height="14" transform="rotate(0,222,306)"/><rect x="215" y="313" width="14" height="14" transform="rotate(0,222,320)"/><path d="M 215 327v 14h 7a 7 7, 0, 0, 0, 0 -14" transform="rotate(90,222,334)"/><rect x="215" y="355" width="14" height="14" transform="rotate(0,222,362)"/><path d="M 215 383v 14h 7a 7 7, 0, 0, 0, 0 -14" transform="rotate(180,222,390)"/><circle cx="222" cy="418" r="7" transform="rotate(0,222,418)"/><rect x="215" y="439" width="14" height="14" transform="rotate(0,222,446)"/><path d="M 229 33v 14h 7a 7 7, 0, 0, 0, 0 -14" transform="rotate(-90,236,40)"/><path d="M 229 47v 14h 7a 7 7, 0, 0, 0, 0 -14" transform="rotate(90,236,54)"/><path d="M 229 75v 14h 7a 7 7, 0, 0, 0, 0 -14" transform="rotate(0,236,82)"/><path d="M 229 173v 14h 14v -7a 7 7, 0, 0, 0, -7 -7" transform="rotate(0,236,180)"/><path d="M 229 187v 14h 14v -7a 7 7, 0, 0, 0, -7 -7" transform="rotate(90,236,194)"/><rect x="229" y="299" width="14" height="14" transform="rotate(0,236,306)"/><rect x="229" y="313" width="14" height="14" transform="rotate(0,236,320)"/><path d="M 229 355v 14h 14v -7a 7 7, 0, 0, 0, -7 -7" transform="rotate(0,236,362)"/><rect x="229" y="369" width="14" height="14" transform="rotate(0,236,376)"/><rect x="229" y="383" width="14" height="14" transform="rotate(0,236,390)"/><path d="M 229 397v 14h 7a 7 7, 0, 0, 0, 0 -14" transform="rotate(90,236,404)"/><path d="M 229 425v 14h 14v -7a 7 7, 0, 0, 0, -7 -7" transform="rotate(-90,236,432)"/><rect x="229" y="439" width="14" height="14" transform="rotate(0,236,446)"/><path d="M 243 19v 14h 7a 7 7, 0, 0, 0, 0 -14" transform="rotate(180,250,26)"/><path d="M 243 103v 14h 7a 7 7, 0, 0, 0, 0 -14" transform="rotate(-90,250,110)"/><path d="M 243 117v 14h 14v -7a 7 7, 0, 0, 0, -7 -7" transform="rotate(180,250,124)"/><path d="M 243 215v 14h 14v -7a 7 7, 0, 0, 0, -7 -7" transform="rotate(-90,250,222)"/><rect x="243" y="229" width="14" height="14" transform="rotate(0,250,236)"/><path d="M 243 243v 14h 7a 7 7, 0, 0, 0, 0 -14" transform="rotate(90,250,250)"/><path d="M 243 271v 14h 7a 7 7, 0, 0, 0, 0 -14" transform="rotate(180,250,278)"/><rect x="243" y="299" width="14" height="14" transform="rotate(0,250,306)"/><rect x="243" y="313" width="14" height="14" transform="rotate(0,250,320)"/><rect x="243" y="327" width="14" height="14" transform="rotate(0,250,334)"/><path d="M 243 341v 14h 14v -7a 7 7, 0, 0, 0, -7 -7" transform="rotate(180,250,348)"/><path d="M 243 369v 14h 14v -7a 7 7, 0, 0, 0, -7 -7" transform="rotate(0,250,376)"/><rect x="243" y="383" width="14" height="14" transform="rotate(0,250,390)"/><path d="M 243 411v 14h 14v -7a 7 7, 0, 0, 0, -7 -7" transform="rotate(-90,250,418)"/><rect x="243" y="425" width="14" height="14" transform="rotate(0,250,432)"/><path d="M 243 439v 14h 14v -7a 7 7, 0, 0, 0, -7 -7" transform="rotate(90,250,446)"/><rect x="257" y="19" width="14" height="14" transform="rotate(0,264,26)"/><path d="M 257 33v 14h 7a 7 7, 0, 0, 0, 0 -14" transform="rotate(90,264,40)"/><path d="M 257 75v 14h 14v -7a 7 7, 0, 0, 0, -7 -7" transform="rotate(-90,264,82)"/><path d="M 257 89v 14h 7a 7 7, 0, 0, 0, 0 -14" transform="rotate(90,264,96)"/><rect x="257" y="117" width="14" height="14" transform="rotate(0,264,124)"/><path d="M 257 131v 14h 7a 7 7, 0, 0, 0, 0 -14" transform="rotate(90,264,138)"/><path d="M 257 187v 14h 14v -7a 7 7, 0, 0, 0, -7 -7" transform="rotate(-90,264,194)"/><rect x="257" y="201" width="14" height="14" transform="rotate(0,264,208)"/><path d="M 257 215v 14h 14v -7a 7 7, 0, 0, 0, -7 -7" transform="rotate(90,264,222)"/><rect x="257" y="271" width="14" height="14" transform="rotate(0,264,278)"/><path d="M 257 299v 14h 14v -7a 7 7, 0, 0, 0, -7 -7" transform="rotate(0,264,306)"/><rect x="257" y="313" width="14" height="14" transform="rotate(0,264,320)"/><rect x="257" y="327" width="14" height="14" transform="rotate(0,264,334)"/><rect x="257" y="341" width="14" height="14" transform="rotate(0,264,348)"/><path d="M 257 355v 14h 14v -7a 7 7, 0, 0, 0, -7 -7" transform="rotate(180,264,362)"/><path d="M 257 383v 14h 7a 7 7, 0, 0, 0, 0 -14" transform="rotate(0,264,390)"/><rect x="257" y="411" width="14" height="14" transform="rotate(0,264,418)"/><path d="M 257 425v 14h 14v -7a 7 7, 0, 0, 0, -7 -7" transform="rotate(90,264,432)"/><path d="M 257 453v 14h 14v -7a 7 7, 0, 0, 0, -7 -7" transform="rotate(-90,264,460)"/><path d="M 257 467v 14h 7a 7 7, 0, 0, 0, 0 -14" transform="rotate(90,264,474)"/><rect x="271" y="19" width="14" height="14" transform="rotate(0,278,26)"/><circle cx="278" cy="54" r="7" transform="rotate(0,278,54)"/><path d="M 271 75v 14h 7a 7 7, 0, 0, 0, 0 -14" transform="rotate(0,278,82)"/><path d="M 271 103v 14h 7a 7 7, 0, 0, 0, 0 -14" transform="rotate(-90,278,110)"/><rect x="271" y="117" width="14" height="14" transform="rotate(0,278,124)"/><path d="M 271 145v 14h 7a 7 7, 0, 0, 0, 0 -14" transform="rotate(-90,278,152)"/><path d="M 271 159v 14h 14v -7a 7 7, 0, 0, 0, -7 -7" transform="rotate(180,278,166)"/><path d="M 271 187v 14h 14v -7a 7 7, 0, 0, 0, -7 -7" transform="rotate(0,278,194)"/><rect x="271" y="201" width="14" height="14" transform="rotate(0,278,208)"/><path d="M 271 243v 14h 7a 7 7, 0, 0, 0, 0 -14" transform="rotate(180,278,250)"/><path d="M 271 271v 14h 7a 7 7, 0, 0, 0, 0 -14" transform="rotate(0,278,278)"/><rect x="271" y="327" width="14" height="14" transform="rotate(0,278,334)"/><path d="M 271 355v 14h 7a 7 7, 0, 0, 0, 0 -14" transform="rotate(0,278,362)"/><path d="M 271 397v 14h 7a 7 7, 0, 0, 0, 0 -14" transform="rotate(-90,278,404)"/><rect x="271" y="411" width="14" height="14" transform="rotate(0,278,418)"/><path d="M 271 439v 14h 7a 7 7, 0, 0, 0, 0 -14" transform="rotate(-90,278,446)"/><rect x="271" y="453" width="14" height="14" transform="rotate(0,278,460)"/><path d="M 285 19v 14h 7a 7 7, 0, 0, 0, 0 -14" transform="rotate(0,292,26)"/><path d="M 285 89v 14h 7a 7 7, 0, 0, 0, 0 -14" transform="rotate(180,292,96)"/><rect x="285" y="117" width="14" height="14" transform="rotate(0,292,124)"/><path d="M 285 159v 14h 14v -7a 7 7, 0, 0, 0, -7 -7" transform="rotate(0,292,166)"/><path d="M 285 173v 14h 7a 7 7, 0, 0, 0, 0 -14" transform="rotate(90,292,180)"/><rect x="285" y="201" width="14" height="14" transform="rotate(0,292,208)"/><path d="M 285 215v 14h 7a 7 7, 0, 0, 0, 0 -14" transform="rotate(90,292,222)"/><path d="M 285 243v 14h 14v -7a 7 7, 0, 0, 0, -7 -7" transform="rotate(0,292,250)"/><path d="M 285 257v 14h 14v -7a 7 7, 0, 0, 0, -7 -7" transform="rotate(180,292,264)"/><circle cx="292" cy="292" r="7" transform="rotate(0,292,292)"/><path d="M 285 327v 14h 7a 7 7, 0, 0, 0, 0 -14" transform="rotate(0,292,334)"/><circle cx="292" cy="376" r="7" transform="rotate(0,292,376)"/><path d="M 285 411v 14h 7a 7 7, 0, 0, 0, 0 -14" transform="rotate(0,292,418)"/><path d="M 285 453v 14h 14v -7a 7 7, 0, 0, 0, -7 -7" transform="rotate(0,292,460)"/><path d="M 285 467v 14h 7a 7 7, 0, 0, 0, 0 -14" transform="rotate(90,292,474)"/><circle cx="306" cy="54" r="7" transform="rotate(0,306,54)"/><path d="M 299 89v 14h 14v -7a 7 7, 0, 0, 0, -7 -7" transform="rotate(0,306,96)"/><rect x="299" y="103" width="14" height="14" transform="rotate(0,306,110)"/><rect x="299" y="117" width="14" height="14" transform="rotate(0,306,124)"/><rect x="299" y="131" width="14" height="14" transform="rotate(0,306,138)"/><path d="M 299 145v 14h 14v -7a 7 7, 0, 0, 0, -7 -7" transform="rotate(180,306,152)"/><path d="M 299 187v 14h 14v -7a 7 7, 0, 0, 0, -7 -7" transform="rotate(-90,306,194)"/><rect x="299" y="201" width="14" height="14" transform="rotate(0,306,208)"/><path d="M 299 229v 14h 7a 7 7, 0, 0, 0, 0 -14" transform="rotate(180,306,236)"/><rect x="299" y="257" width="14" height="14" transform="rotate(0,306,264)"/><path d="M 299 313v 14h 7a 7 7, 0, 0, 0, 0 -14" transform="rotate(180,306,320)"/><path d="M 299 341v 14h 7a 7 7, 0, 0, 0, 0 -14" transform="rotate(180,306,348)"/><circle cx="306" cy="404" r="7" transform="rotate(0,306,404)"/><path d="M 299 425v 14h 7a 7 7, 0, 0, 0, 0 -14" transform="rotate(-90,306,432)"/><path d="M 299 439v 14h 7a 7 7, 0, 0, 0, 0 -14" transform="rotate(90,306,446)"/><path d="M 313 19v 14h 7a 7 7, 0, 0, 0, 0 -14" transform="rotate(-90,320,26)"/><path d="M 313 33v 14h 7a 7 7, 0, 0, 0, 0 -14" transform="rotate(90,320,40)"/><path d="M 313 75v 14h 7a 7 7, 0, 0, 0, 0 -14" transform="rotate(180,320,82)"/><rect x="313" y="117" width="14" height="14" transform="rotate(0,320,124)"/><rect x="313" y="131" width="14" height="14" transform="rotate(0,320,138)"/><rect x="313" y="145" width="14" height="14" transform="rotate(0,320,152)"/><rect x="313" y="159" width="14" height="14" transform="rotate(0,320,166)"/><rect x="313" y="173" width="14" height="14" transform="rotate(0,320,180)"/><rect x="313" y="187" width="14" height="14" transform="rotate(0,320,194)"/><rect x="313" y="201" width="14" height="14" transform="rotate(0,320,208)"/><rect x="313" y="229" width="14" height="14" transform="rotate(0,320,236)"/><path d="M 313 257v 14h 7a 7 7, 0, 0, 0, 0 -14" transform="rotate(0,320,264)"/><path d="M 313 285v 14h 7a 7 7, 0, 0, 0, 0 -14" transform="rotate(-90,320,292)"/><rect x="313" y="299" width="14" height="14" transform="rotate(0,320,306)"/><path d="M 313 313v 14h 14v -7a 7 7, 0, 0, 0, -7 -7" transform="rotate(90,320,320)"/><rect x="313" y="341" width="14" height="14" transform="rotate(0,320,348)"/><path d="M 313 369v 14h 14v -7a 7 7, 0, 0, 0, -7 -7" transform="rotate(-90,320,376)"/><path d="M 313 383v 14h 14v -7a 7 7, 0, 0, 0, -7 -7" transform="rotate(180,320,390)"/><path d="M 313 467v 14h 7a 7 7, 0, 0, 0, 0 -14" transform="rotate(180,320,474)"/><path d="M 327 75v 14h 14v -7a 7 7, 0, 0, 0, -7 -7" transform="rotate(0,334,82)"/><rect x="327" y="89" width="14" height="14" transform="rotate(0,334,96)"/><rect x="327" y="103" width="14" height="14" transform="rotate(0,334,110)"/><path d="M 327 117v 14h 14v -7a 7 7, 0, 0, 0, -7 -7" transform="rotate(90,334,124)"/><rect x="327" y="159" width="14" height="14" transform="rotate(0,334,166)"/><rect x="327" y="187" width="14" height="14" transform="rotate(0,334,194)"/><rect x="327" y="201" width="14" height="14" transform="rotate(0,334,208)"/><path d="M 327 229v 14h 7a 7 7, 0, 0, 0, 0 -14" transform="rotate(0,334,236)"/><path d="M 327 299v 14h 7a 7 7, 0, 0, 0, 0 -14" transform="rotate(0,334,306)"/><path d="M 327 327v 14h 7a 7 7, 0, 0, 0, 0 -14" transform="rotate(-90,334,334)"/><rect x="327" y="341" width="14" height="14" transform="rotate(0,334,348)"/><rect x="327" y="355" width="14" height="14" transform="rotate(0,334,362)"/><rect x="327" y="369" width="14" height="14" transform="rotate(0,334,376)"/><rect x="327" y="383" width="14" height="14" transform="rotate(0,334,390)"/><rect x="327" y="397" width="14" height="14" transform="rotate(0,334,404)"/><path d="M 327 411v 14h 7a 7 7, 0, 0, 0, 0 -14" transform="rotate(90,334,418)"/><path d="M 327 453v 14h 14v -7a 7 7, 0, 0, 0, -7 -7" transform="rotate(-90,334,460)"/><rect x="327" y="467" width="14" height="14" transform="rotate(0,334,474)"/><circle cx="348" cy="40" r="7" transform="rotate(0,348,40)"/><path d="M 341 61v 14h 7a 7 7, 0, 0, 0, 0 -14" transform="rotate(180,348,68)"/><path d="M 341 145v 14h 14v -7a 7 7, 0, 0, 0, -7 -7" transform="rotate(-90,348,152)"/><rect x="341" y="159" width="14" height="14" transform="rotate(0,348,166)"/><rect x="341" y="173" width="14" height="14" transform="rotate(0,348,180)"/><rect x="341" y="187" width="14" height="14" transform="rotate(0,348,194)"/><rect x="341" y="201" width="14" height="14" transform="rotate(0,348,208)"/><circle cx="348" cy="292" r="7" transform="rotate(0,348,292)"/><path d="M 341 341v 14h 7a 7 7, 0, 0, 0, 0 -14" transform="rotate(0,348,348)"/><rect x="341" y="369" width="14" height="14" transform="rotate(0,348,376)"/><rect x="341" y="397" width="14" height="14" transform="rotate(0,348,404)"/><circle cx="348" cy="432" r="7" transform="rotate(0,348,432)"/><rect x="341" y="453" width="14" height="14" transform="rotate(0,348,460)"/><rect x="341" y="467" width="14" height="14" transform="rotate(0,348,474)"/><circle cx="362" cy="26" r="7" transform="rotate(0,362,26)"/><path d="M 355 61v 14h 7a 7 7, 0, 0, 0, 0 -14" transform="rotate(0,362,68)"/><path d="M 355 89v 14h 7a 7 7, 0, 0, 0, 0 -14" transform="rotate(-90,362,96)"/><path d="M 355 103v 14h 7a 7 7, 0, 0, 0, 0 -14" transform="rotate(90,362,110)"/><path d="M 355 131v 14h 14v -7a 7 7, 0, 0, 0, -7 -7" transform="rotate(-90,362,138)"/><rect x="355" y="145" width="14" height="14" transform="rotate(0,362,152)"/><path d="M 355 159v 14h 14v -7a 7 7, 0, 0, 0, -7 -7" transform="rotate(90,362,166)"/><rect x="355" y="201" width="14" height="14" transform="rotate(0,362,208)"/><path d="M 355 243v 14h 14v -7a 7 7, 0, 0, 0, -7 -7" transform="rotate(-90,362,250)"/><path d="M 355 257v 14h 7a 7 7, 0, 0, 0, 0 -14" transform="rotate(90,362,264)"/><circle cx="362" cy="334" r="7" transform="rotate(0,362,334)"/><path d="M 355 355v 14h 14v -7a 7 7, 0, 0, 0, -7 -7" transform="rotate(-90,362,362)"/><rect x="355" y="369" width="14" height="14" transform="rotate(0,362,376)"/><rect x="355" y="383" width="14" height="14" transform="rotate(0,362,390)"/><rect x="355" y="397" width="14" height="14" transform="rotate(0,362,404)"/><path d="M 355 411v 14h 14v -7a 7 7, 0, 0, 0, -7 -7" transform="rotate(180,362,418)"/><rect x="355" y="453" width="14" height="14" transform="rotate(0,362,460)"/><path d="M 355 467v 14h 14v -7a 7 7, 0, 0, 0, -7 -7" transform="rotate(90,362,474)"/><path d="M 369 131v 14h 7a 7 7, 0, 0, 0, 0 -14" transform="rotate(0,376,138)"/><rect x="369" y="201" width="14" height="14" transform="rotate(0,376,208)"/><rect x="369" y="215" width="14" height="14" transform="rotate(0,376,222)"/><rect x="369" y="229" width="14" height="14" transform="rotate(0,376,236)"/><rect x="369" y="243" width="14" height="14" transform="rotate(0,376,250)"/><path d="M 369 271v 14h 14v -7a 7 7, 0, 0, 0, -7 -7" transform="rotate(-90,376,278)"/><rect x="369" y="285" width="14" height="14" transform="rotate(0,376,292)"/><rect x="369" y="299" width="14" height="14" transform="rotate(0,376,306)"/><path d="M 369 313v 14h 14v -7a 7 7, 0, 0, 0, -7 -7" transform="rotate(180,376,320)"/><rect x="369" y="355" width="14" height="14" transform="rotate(0,376,362)"/><rect x="369" y="411" width="14" height="14" transform="rotate(0,376,418)"/><path d="M 369 425v 14h 7a 7 7, 0, 0, 0, 0 -14" transform="rotate(90,376,432)"/><path d="M 369 453v 14h 7a 7 7, 0, 0, 0, 0 -14" transform="rotate(0,376,460)"/><path d="M 383 159v 14h 14v -7a 7 7, 0, 0, 0, -7 -7" transform="rotate(-90,390,166)"/><rect x="383" y="173" width="14" height="14" transform="rotate(0,390,180)"/><rect x="383" y="187" width="14" height="14" transform="rotate(0,390,194)"/><path d="M 383 201v 14h 14v -7a 7 7, 0, 0, 0, -7 -7" transform="rotate(90,390,208)"/><path d="M 383 243v 14h 14v -7a 7 7, 0, 0, 0, -7 -7" transform="rotate(0,390,250)"/><rect x="383" y="257" width="14" height="14" transform="rotate(0,390,264)"/><rect x="383" y="271" width="14" height="14" transform="rotate(0,390,278)"/><rect x="383" y="285" width="14" height="14" transform="rotate(0,390,292)"/><rect x="383" y="313" width="14" height="14" transform="rotate(0,390,320)"/><rect x="383" y="327" width="14" height="14" transform="rotate(0,390,334)"/><rect x="383" y="341" width="14" height="14" transform="rotate(0,390,348)"/><rect x="383" y="355" width="14" height="14" transform="rotate(0,390,362)"/><circle cx="390" cy="390" r="7" transform="rotate(0,390,390)"/><rect x="383" y="411" width="14" height="14" transform="rotate(0,390,418)"/><circle cx="404" cy="138" r="7" transform="rotate(0,404,138)"/><path d="M 397 159v 14h 7a 7 7, 0, 0, 0, 0 -14" transform="rotate(0,404,166)"/><circle cx="404" cy="236" r="7" transform="rotate(0,404,236)"/><rect x="397" y="257" width="14" height="14" transform="rotate(0,404,264)"/><rect x="397" y="271" width="14" height="14" transform="rotate(0,404,278)"/><rect x="397" y="285" width="14" height="14" transform="rotate(0,404,292)"/><rect x="397" y="299" width="14" height="14" transform="rotate(0,404,306)"/><rect x="397" y="313" width="14" height="14" transform="rotate(0,404,320)"/><rect x="397" y="327" width="14" height="14" transform="rotate(0,404,334)"/><rect x="397" y="341" width="14" height="14" transform="rotate(0,404,348)"/><rect x="397" y="355" width="14" height="14" transform="rotate(0,404,362)"/><rect x="397" y="411" width="14" height="14" transform="rotate(0,404,418)"/><rect x="397" y="425" width="14" height="14" transform="rotate(0,404,432)"/><path d="M 397 439v 14h 14v -7a 7 7, 0, 0, 0, -7 -7" transform="rotate(180,404,446)"/><circle cx="418" cy="222" r="7" transform="rotate(0,418,222)"/><rect x="411" y="257" width="14" height="14" transform="rotate(0,418,264)"/><path d="M 411 285v 14h 7a 7 7, 0, 0, 0, 0 -14" transform="rotate(0,418,292)"/><rect x="411" y="313" width="14" height="14" transform="rotate(0,418,320)"/><rect x="411" y="327" width="14" height="14" transform="rotate(0,418,334)"/><rect x="411" y="341" width="14" height="14" transform="rotate(0,418,348)"/><rect x="411" y="355" width="14" height="14" transform="rotate(0,418,362)"/><rect x="411" y="369" width="14" height="14" transform="rotate(0,418,376)"/><rect x="411" y="383" width="14" height="14" transform="rotate(0,418,390)"/><rect x="411" y="397" width="14" height="14" transform="rotate(0,418,404)"/><path d="M 411 411v 14h 14v -7a 7 7, 0, 0, 0, -7 -7" transform="rotate(90,418,418)"/><rect x="411" y="439" width="14" height="14" transform="rotate(0,418,446)"/><path d="M 425 131v 14h 14v -7a 7 7, 0, 0, 0, -7 -7" transform="rotate(-90,432,138)"/><path d="M 425 145v 14h 14v -7a 7 7, 0, 0, 0, -7 -7" transform="rotate(180,432,152)"/><path d="M 425 173v 14h 7a 7 7, 0, 0, 0, 0 -14" transform="rotate(180,432,180)"/><circle cx="432" cy="208" r="7" transform="rotate(0,432,208)"/><path d="M 425 257v 14h 14v -7a 7 7, 0, 0, 0, -7 -7" transform="rotate(0,432,264)"/><path d="M 425 271v 14h 7a 7 7, 0, 0, 0, 0 -14" transform="rotate(90,432,278)"/><path d="M 425 299v 14h 14v -7a 7 7, 0, 0, 0, -7 -7" transform="rotate(-90,432,306)"/><rect x="425" y="313" width="14" height="14" transform="rotate(0,432,320)"/><rect x="425" y="327" width="14" height="14" transform="rotate(0,432,334)"/><path d="M 425 341v 14h 14v -7a 7 7, 0, 0, 0, -7 -7" transform="rotate(90,432,348)"/><rect x="425" y="397" width="14" height="14" transform="rotate(0,432,404)"/><path d="M 425 425v 14h 14v -7a 7 7, 0, 0, 0, -7 -7" transform="rotate(-90,432,432)"/><rect x="425" y="439" width="14" height="14" transform="rotate(0,432,446)"/><rect x="425" y="453" width="14" height="14" transform="rotate(0,432,460)"/><path d="M 425 467v 14h 7a 7 7, 0, 0, 0, 0 -14" transform="rotate(90,432,474)"/><rect x="439" y="131" width="14" height="14" transform="rotate(0,446,138)"/><rect x="439" y="145" width="14" height="14" transform="rotate(0,446,152)"/><rect x="439" y="159" width="14" height="14" transform="rotate(0,446,166)"/><rect x="439" y="173" width="14" height="14" transform="rotate(0,446,180)"/><path d="M 439 187v 14h 7a 7 7, 0, 0, 0, 0 -14" transform="rotate(90,446,194)"/><path d="M 439 215v 14h 14v -7a 7 7, 0, 0, 0, -7 -7" transform="rotate(-90,446,222)"/><path d="M 439 229v 14h 7a 7 7, 0, 0, 0, 0 -14" transform="rotate(90,446,236)"/><rect x="439" y="299" width="14" height="14" transform="rotate(0,446,306)"/><path d="M 439 313v 14h 14v -7a 7 7, 0, 0, 0, -7 -7" transform="rotate(90,446,320)"/><path d="M 439 383v 14h 14v -7a 7 7, 0, 0, 0, -7 -7" transform="rotate(-90,446,390)"/><rect x="439" y="397" width="14" height="14" transform="rotate(0,446,404)"/><rect x="439" y="425" width="14" height="14" transform="rotate(0,446,432)"/><path d="M 453 131v 14h 14v -7a 7 7, 0, 0, 0, -7 -7" transform="rotate(0,460,138)"/><rect x="453" y="145" width="14" height="14" transform="rotate(0,460,152)"/><path d="M 453 159v 14h 14v -7a 7 7, 0, 0, 0, -7 -7" transform="rotate(90,460,166)"/><rect x="453" y="215" width="14" height="14" transform="rotate(0,460,222)"/><path d="M 453 243v 14h 7a 7 7, 0, 0, 0, 0 -14" transform="rotate(180,460,250)"/><circle cx="460" cy="278" r="7" transform="rotate(0,460,278)"/><path d="M 453 299v 14h 7a 7 7, 0, 0, 0, 0 -14" transform="rotate(0,460,306)"/><path d="M 453 327v 14h 7a 7 7, 0, 0, 0, 0 -14" transform="rotate(-90,460,334)"/><rect x="453" y="341" width="14" height="14" transform="rotate(0,460,348)"/><rect x="453" y="355" width="14" height="14" transform="rotate(0,460,362)"/><rect x="453" y="369" width="14" height="14" transform="rotate(0,460,376)"/><rect x="453" y="383" width="14" height="14" transform="rotate(0,460,390)"/><rect x="453" y="397" width="14" height="14" transform="rotate(0,460,404)"/><rect x="453" y="411" width="14" height="14" transform="rotate(0,460,418)"/><path d="M 453 425v 14h 14v -7a 7 7, 0, 0, 0, -7 -7" transform="rotate(90,460,432)"/><circle cx="460" cy="474" r="7" transform="rotate(0,460,474)"/><circle cx="474" cy="180" r="7" transform="rotate(0,474,180)"/><path d="M 467 215v 14h 7a 7 7, 0, 0, 0, 0 -14" transform="rotate(0,474,222)"/><path d="M 467 243v 14h 14v -7a 7 7, 0, 0, 0, -7 -7" transform="rotate(0,474,250)"/><path d="M 467 257v 14h 7a 7 7, 0, 0, 0, 0 -14" transform="rotate(90,474,264)"/><circle cx="474" cy="292" r="7" transform="rotate(0,474,292)"/><circle cx="474" cy="320" r="7" transform="rotate(0,474,320)"/><path d="M 467 341v 14h 7a 7 7, 0, 0, 0, 0 -14" transform="rotate(0,474,348)"/><path d="M 467 369v 14h 7a 7 7, 0, 0, 0, 0 -14" transform="rotate(0,474,376)"/><path d="M 467 411v 14h 7a 7 7, 0, 0, 0, 0 -14" transform="rotate(0,474,418)"/><circle cx="474" cy="446" r="7" transform="rotate(0,474,446)"/><path clip-rule="evenodd" d="M 19 54v 28a 35 35, 0, 0, 0, 35 35h 28a 35 35, 0, 0, 0, 35 -35v -28a 35 35, 0, 0, 0, -35 -35h -28a 35 35, 0, 0, 0, -35 35M 54 33h 28a 21 21, 0, 0, 1, 21 21v 28a 21 21, 0, 0, 1, -21 21h -28a 21 21, 0, 0, 1, -21 -21v -28a 21 21, 0, 0, 1, 21 -21" transform="rotate(0,68,68)"/><rect x="47" y="47" width="42" height="42" transform="rotate(0,68,68)"/><path clip-rule="evenodd" d="M 383 54v 28a 35 35, 0, 0, 0, 35 35h 28a 35 35, 0, 0, 0, 35 -35v -28a 35 35, 0, 0, 0, -35 -35h -28a 35 35, 0, 0, 0, -35 35M 418 33h 28a 21 21, 0, 0, 1, 21 21v 28a 21 21, 0, 0, 1, -21 21h -28a 21 21, 0, 0, 1, -21 -21v -28a 21 21, 0, 0, 1, 21 -21" transform="rotate(90,432,68)"/><rect x="411" y="47" width="42" height="42" transform="rotate(90,432,68)"/><path clip-rule="evenodd" d="M 19 418v 28a 35 35, 0, 0, 0, 35 35h 28a 35 35, 0, 0, 0, 35 -35v -28a 35 35, 0, 0, 0, -35 -35h -28a 35 35, 0, 0, 0, -35 35M 54 397h 28a 21 21, 0, 0, 1, 21 21v 28a 21 21, 0, 0, 1, -21 21h -28a 21 21, 0, 0, 1, -21 -21v -28a 21 21, 0, 0, 1, 21 -21" transform="rotate(-90,68,432)"/><rect x="47" y="411" width="42" height="42" transform="rotate(-90,68,432)"/></clipPath></defs><rect x="0" y="0" height="500" width="500" clip-path="url('#clip-path-background-color')" fill="#fff"/><rect x="0" y="0" height="500" width="500" clip-path="url('#clip-path-dot-color')" fill="#000000"/></svg>